<svg xmlns="http://www.w3.org/2000/svg" viewBox="0 0 516.5 268.5">
  <title>DARELogo2</title>
  <g>
    <rect x="9.25" y="6.18" width="488.5" height="239.5" style="fill: #fff;stroke: #f9f9f9;stroke-miterlimit: 10"/>
    <g>
      <path d="M246.12,126.27c-1.72,2-3.9,3.49-5.27,5.83-.54.93-1.79,1.46-2.73,2.16s-1.6,2-3,2.5c-.73.26-1.77,1.25-1.7,1.8.22,1.91-1.12,2.74-2.13,3.86a5.17,5.17,0,0,1-.66,3.72c-2.1,2.66-3.62,5.71-5.88,8.3-1.27,1.45-3.14,2.31-4,4.12.79.7,1.85,1.6,1.17,2.49-1.61,2.12-2.17,4.7-3.46,6.95a8.7,8.7,0,0,0-.56,1.94,4.15,4.15,0,0,0,5-1.82c1.54,0,3,0,4.43,0,1.16,0,1.62-.53,2-1.61.77-2,1.08-4.32,3-5.79.21-.16.14-.67.34-.84,1.53-1.28,1.12-3.31,1.91-4.91a61.73,61.73,0,0,0,3-7.43c1-3.12,2.65-6.05,3.65-9.17.57-1.78.82-3.66,2-5.2a21.82,21.82,0,0,0,3.54-6.22c.17-.51.4-1,.6-1.5A2.28,2.28,0,0,0,246.12,126.27Z" transform="translate(-24.5 -19.25)" style="fill: #3d90ea"/>
      <path d="M239,216.22c.92,1.1,2,.85,3.42.28l-2.69-2.94C238.78,214.43,238.16,215.2,239,216.22Z" transform="translate(-24.5 -19.25)" style="fill: #3d90ea"/>
      <path d="M250.15,166.88v3.4c2.26-.62,2.08-1.95,1.7-3.51Z" transform="translate(-24.5 -19.25)" style="fill: #3d90ea"/>
      <path d="M149,200.24a2,2,0,0,0-.51,1,3.51,3.51,0,0,0,.11,1.07c.34-.28.62-.41.75-.63a3.46,3.46,0,0,0,.41-1.11C149.74,200.48,149.06,200.16,149,200.24Z" transform="translate(-24.5 -19.25)" style="fill: #3d90ea"/>
      <path d="M215.1,165.64l1.12,1.17c1.75-1.15.84-2.63.65-4.07C216.29,163.68,215.72,164.62,215.1,165.64Z" transform="translate(-24.5 -19.25)" style="fill: #3d90ea"/>
      <path d="M258.19,149.35l-2.25,1.1c.4.8.78,1.58,1.18,2.39,1.66-1.17,1.67-1.17,1.61-3.09C258.73,149.63,258.42,149.52,258.19,149.35Z" transform="translate(-24.5 -19.25)" style="fill: #3d90ea"/>
      <path d="M154.06,191.74c-.54.61-.22,2-.29,3.14,3.33-1.3,4.35-3.29,3.64-6.73C155.35,188.42,155.14,190.53,154.06,191.74Z" transform="translate(-24.5 -19.25)" style="fill: #3d90ea"/>
      <path d="M159.13,181.54c0,1,.4,2.27-.08,2.83-1,1.18.48,1.61.28,2.59C161.43,185,160.29,183.3,159.13,181.54Z" transform="translate(-24.5 -19.25)" style="fill: #3d90ea"/>
      <path d="M196.84,207.42c.7.54,1.12-.24,1.53-.68.18-.19.18-.56.32-1.08l-2.26-.14C196.61,206.45,196.53,207.18,196.84,207.42Z" transform="translate(-24.5 -19.25)" style="fill: #3d90ea"/>
      <path d="M155.74,144.2l2.62-.49-2.42-2.21C155.86,142.63,155.81,143.23,155.74,144.2Z" transform="translate(-24.5 -19.25)" style="fill: #3d90ea"/>
      <path d="M160.64,190.38c.79-.87,1.4-1.54,2-2.26l-1.11-1.21C160,187.7,160.46,188.92,160.64,190.38Z" transform="translate(-24.5 -19.25)" style="fill: #3d90ea"/>
      <path d="M136.39,224.19h1.82c.28-.69.62-1.49.95-2.29-.28-.21-.56-.42-.83-.64C137.79,222.25,136.44,222.54,136.39,224.19Z" transform="translate(-24.5 -19.25)" style="fill: #3d90ea"/>
      <path d="M166.32,176.28c-1.42,1.24-2.33,2.62-1.49,4.73C167.46,179.88,166.12,177.86,166.32,176.28Z" transform="translate(-24.5 -19.25)" style="fill: #3d90ea"/>
      <path d="M252.2,164.76c1.77.14,1.83-1.27,2.26-2.11s1.54-1.88.7-3.16C252.53,159.73,252,160.63,252.2,164.76Z" transform="translate(-24.5 -19.25)" style="fill: #3d90ea"/>
      <path d="M429,153.34l2.27-2.28c-1.91-1.41-2.6-1.37-4-.07a1.78,1.78,0,0,0-.5,2.35Z" transform="translate(-24.5 -19.25)" style="fill: #3d90ea"/>
      <path d="M455.23,107.39h-2.72c.19.52.26,1.13.46,1.17A1.68,1.68,0,0,0,455.23,107.39Z" transform="translate(-24.5 -19.25)" style="fill: #3d90ea"/>
      <path d="M495.54,60.09c.32.62.6,1.18.89,1.73,1.49-.21,1.49-.21,2.34-1.59C497.1,58.82,496.17,58.81,495.54,60.09Z" transform="translate(-24.5 -19.25)" style="fill: #3d90ea"/>
      <path d="M24.5,19.25v268.5H541V19.25ZM150,235c.11-1.73,1.92-1.63,2.75-2.65l1,1A4.16,4.16,0,0,1,150,235Zm11.18-9a45.19,45.19,0,0,0-3.11,5c-.55.9-1.15,1.77-1.75,2.7-2-1,.17-2.25-.93-3.42a12.16,12.16,0,0,0-1.78.53c-1.31.57-2.57,1.29-3.9,1.83a4.82,4.82,0,0,1-1.79.17c-.24,0-.49-.31-.71-.29-3.16.38-4-.37-4.89-3.53a14.67,14.67,0,0,1-.62-3.07c-.15-2.18.94-3.87,2.19-5.42a34.49,34.49,0,0,1,3.51-3.54,12.86,12.86,0,0,0,3.32-4.63c.3-.76.81-1.84,1.41-2a5.83,5.83,0,0,1,3.51.21,28.54,28.54,0,0,1,5.28,3.28,3.41,3.41,0,0,1,.82,2.27,23.9,23.9,0,0,0,.61,5.08A5.16,5.16,0,0,1,161.21,226ZM171.15,174a9.61,9.61,0,0,1-1.14,3.51,15.92,15.92,0,0,0-3.63,7.57c-.15,1.1-1.27,2.12-1.29,3.46,0,.16-.27.4-.46.46-2.28.69-2.78,3.13-4.39,4.52s-2.75,2.5-5.44,1.76c1,1,.79,2.32,2.15,2.39.07,1,.15,1.94.24,2.95a15.62,15.62,0,0,1-2.13,1.56c-2.16,1.07-4.34,2.09-5.15,4.84a8.59,8.59,0,0,1,.47,2.12c0,.36-.61.73-1.18,1.35v-3.46h-3.29c-.61,1.89.32,3.52.87,5.2.6,1.85.12,2.59-1.8,2.67a6,6,0,0,1-1.34,0,3.57,3.57,0,0,0-3.93,1.82v7.19c-1.18,1.52-2.52,2.77-3.68,4.22a8.74,8.74,0,0,1-5.83,3.53c-.57.06-1.49.43-1.59.82-.47,1.88-1.79,1.89-3.26,1.83-1,0-1.5.66-1.74,1.76l2.34.48c-.31.53-.43,1-.73,1.21a38.54,38.54,0,0,1-5.57,3.47c-1,.44-1.19,1.26-1.87,1.79a16.7,16.7,0,0,1-6.29,2.56c-2.81.73-5.57,1.66-8.4,2.33-1.31.31-2.58.84-3.9,1.06-.93.16-2,.29-2.68-.74a1.34,1.34,0,0,0-2-.37c-1.14,1-2.3.07-3.4.61-.57-2,1.72-1.24,1.78-2.42-1.68-1.45-3.13,1-5.46-.23-1.2-1.2-3.09-2.92-4.77-4.82-1.53-1.72-2.83-3.65-4.27-5.55-.41.28-.82.41-.89.64-.57,1.87-1.84,3.46-2,5.55a5.9,5.9,0,0,1-6,5.25c.38-1,1.71-1.38,1.38-2.68-.26-1-1.14-2.43-2.14-2.52a2.83,2.83,0,0,0-1.44.51c-.95.52.14.79.17,1.19.06.88,0,1.77,0,2.63l-2,1c-.21-.08-.46-.1-.59-.23a26.48,26.48,0,0,1-4.3-5.57c-.65-1.1-1.86-1.88-2.45-3s-.27-2.36-.78-3.35c-1-2-1.17-4.18-2-6.21a12.85,12.85,0,0,1-.61-1.33c.78-.56.39-1.46.7-2.09,1.19-2.41,2.5-4.75,3.75-7.14s2-4.87,3.63-6.81c2.45-3,3.88-6.46,5.9-9.62a16.63,16.63,0,0,1,2.65-3.24,16.68,16.68,0,0,0,4-5.33c1.39-3.26,3.65-5.87,5.57-8.73,2.49-3.7,5.27-7.19,8-10.74,3.8-4.95,8.42-9.08,12.9-13.3,2.54-2.39,5.24-4.67,7.62-7.23,1.55-1.66,3.72-1.33,5.42-2.33.14-.09.54.24.81.4,1.9,1.14,4.35,1.56,5.33,4,.06.15.34.23.53.28,2,.55,2.65,2.34,3.66,3.88a23.19,23.19,0,0,1,2.79,6.2,21.53,21.53,0,0,1,.41,2.16c-3.8,2.15-7.7,3.87-11.14,6.43a14.34,14.34,0,0,1-3.08,1.39,1.84,1.84,0,0,0-1.11,2.61l1.8-1a12.62,12.62,0,0,1-.28,2.34,4.77,4.77,0,0,1-4.21,3.35,4.81,4.81,0,0,0-3.21,1.42c.19,1.26.37,2.37.58,3.69-.83.74-1.68,1.45-2.46,2.23a2.06,2.06,0,0,1-1.72.74c-1.37-.08-2.39.72-3.57,1.82l2.91.22-5.74,5.74c-.91-.27-1.41-.19-1.6.86a4.66,4.66,0,0,1-.66,1.75c-.71,1.12-1.08,2.46-1.75,3.61a19.55,19.55,0,0,1-2.11,2.8,2.34,2.34,0,0,1-2.94.16l-3.26-2.09a19.61,19.61,0,0,1,1.29,8.2,2.86,2.86,0,0,1-.72,1.36c-.48.57-.87.15-1.38-.13a1.34,1.34,0,0,0-1.86,1,26.41,26.41,0,0,0,0,2.68l2.59.12a6,6,0,0,1-.3,2.78,4.81,4.81,0,0,0,.15,4c.58,1.25,1.14,2.05,2.59,1.8a3.44,3.44,0,0,1,2.91,1c2.09,2,4.24.24,6.34.33a.32.32,0,0,0,.26-.16c.48-2.36,2.83-2.19,4.32-3.16,1.64-1.06,2.53-3,4.5-3.65,2.16-3.13,5.84-4.61,8.19-7.53,1.6-2,3.76-3.39,5.48-5.31a85,85,0,0,0,6.41-8.76c2.08-3,4.05-6.11,6-9.19,2.48-3.87,4.91-7.77,7.37-11.65a6,6,0,0,1,.92-1.29,5.66,5.66,0,0,0,1.76-5c-.18-2.37-.11-3,.67-4.51,1.16-2.15,1.5-4.51,2.09-6.84s.34-4.75.63-7.09c.2-1.61-.59-2.93-.8-4.4-.15-1-1.22-1.73-2.19-2.38a11.89,11.89,0,0,0-6-2.09L134.92,148c-1.79-.79-3.2-2.25-5.26-2-.41.06-1,.05-1.2.3a2.58,2.58,0,0,1-3.72.5,2.53,2.53,0,0,0-2.18.07c-2.07,1.22-4.31,1.24-6.55,1.11a5.79,5.79,0,0,0-4.11,1.42,11.16,11.16,0,0,1-2.48,1.27,24.77,24.77,0,0,1-4,.8c-1.14.27-2.13,1.16-3.48,1.28A5.34,5.34,0,0,0,99.43,154a20,20,0,0,0-2.16,2.16,3.75,3.75,0,0,0-3.57.93c-1.57,1.38-3.08,2.12-5.08,1-.22-.12-.61.06-1.21.14a14.32,14.32,0,0,0,.79,1.43,7.11,7.11,0,0,0,.8.83c-.29,1.2-.9,1.66-1.93,1.6a5.18,5.18,0,0,0-1.67,0c-1.41.41-2.91.53-3.77,2.16-.5,1-1.06,2.5-2.81,1.83-1.19.85-3,.6-3.65,2.58a5.34,5.34,0,0,1-2.8,2.69c-1.84.81-2.31,2.09-2.17,4H65.27a12.65,12.65,0,0,1-4.41,4.81,20.72,20.72,0,0,0-3.33,2.39c-1.15,1.24-2.16,1.13-3.36.28v-2c.35-.23,1-.46,1-.71,0-1.5,1.1-2.55,1.8-3.59a6.5,6.5,0,0,0,1.2-4.53c-.2-1.9.53-3.47,1.31-5.15a40.89,40.89,0,0,1,5-8c1.55-2,4-2.76,6-4.14s3.92-2.45,5.12-4.42a3,3,0,0,1,2.38-1.54,25.53,25.53,0,0,1,3.4,0c2.4-2.91,5.73-4.65,8.84-6.72A12.07,12.07,0,0,1,98,140c1.33.09,2.66,0,4,0,.45-.68.6-1.34-.46-1.3a10.75,10.75,0,0,0-2.35.62c-.08-1.82.42-3,1.78-3.3,4.67-1.14,8.75-3.64,13.13-5.44,1.65-.68,3.26-2.19,5.24-.66.16.12.62,0,.88-.16a23.69,23.69,0,0,1,7.95-2.61c.36-.06.68-.44,1.24-.82,1.2,1.67,2.31,3.2,3.56,4.91h4v-1.72c-1.06-.83-2.94.72-3.75-1.24l2.75-1,1.94,2.75a9.24,9.24,0,0,0,1-1.58c.26-.78-.09-2,1-2.22a7.83,7.83,0,0,1,3.12.1,22.82,22.82,0,0,1,3.19,1.13l.5,1.88c.4,0,.57,0,.62,0,.58-.69.61-1.88,1.79-2a5.08,5.08,0,0,1,3.4.66c.26.17.5.45.78.52,3.8.92,5.36,3.84,6.61,7.61-.9-.61-1.51-1-2.12-1.45s-1.18-.84-1.85-1.32c-.06.35-.26.83-.15.93a12,12,0,0,1,4,6.71c0,.16.32.25.65.49l1.49-1.78c.95,2.27,1.73,4.12,3.78,5.42s3.71,3,3.46,5.87c-.12,1.49,1,2.6,2.06,3.46,2,1.54,2.35,3.73,2.56,6,.39,4-1.07,7.72-2.19,11.46C171.42,172.6,171.33,173.31,171.15,174Zm16,51.25a7.53,7.53,0,0,1,.29-1.49c1.19,0,2.1-.63,3.24-2.1C190.36,224.41,188.75,224.44,187.14,225.27Zm79.61-27.41a11,11,0,0,1-1.73,1.77l-2.26-1c.13,1.09.22,1.85.36,3.11a14.78,14.78,0,0,1-2.75,2.44,2,2,0,0,1-2.43-.37,13.52,13.52,0,0,0-1.21-1.11L255,204.25c-.31-.07-.59-.05-.71-.18a36.7,36.7,0,0,1-2.85-3.14c-1.75-2.33-1.79-5.17-1.23-7.73a26.12,26.12,0,0,1,2.54-6.92c.55-1,.81-2.18,1.8-2.92a2.4,2.4,0,0,0,.92-2c.13-1.59,1-2.32,2.69-2.59a6.25,6.25,0,0,0,1.21-.28,3.16,3.16,0,0,0,.7-.4,57.36,57.36,0,0,0,6.78,4.93c1.3.69,1.33,1.76,1.7,2.65s0,2.06-.06,3.1c0,.61-.44,1.33-.22,1.78C269.64,193.44,268.06,195.63,266.75,197.86Zm14.06-79c-1.07.9-2.84,1.21-2.7,3.18,0,.19-.32.57-.54.6-1.28.23-1.5,1.09-1.44,2.18,0,.32,0,.85-.11.93a3.31,3.31,0,0,0-2.07,3.45c-1.93,1.61-2.66,4-4,6a19.26,19.26,0,0,1-2.1,2.14l-1.45-2.26c-1.22,2.6-3.18,4.58-2.92,7.46a3.2,3.2,0,0,0,.37,1.5c.43.62,1.24,1,.94,2a12.75,12.75,0,0,1-1.14,2.86c-1.33,2.14-2.84,4.16-4.17,6.3a16.9,16.9,0,0,0-1.35,3.11,17.74,17.74,0,0,1-1.89,4.27c-.72,1.05-1.78,2.38-1.51,4,.07.4-.45.91-.74,1.33-1.86,2.67-1.83,2.67-1.91,5.91a4.5,4.5,0,0,1-.38,2.51,5.55,5.55,0,0,1-2.29,2.52,8.45,8.45,0,0,0-1.4,1,3.35,3.35,0,0,0,.29.81c.84,1,2.32,1.66,1.77,3.26s-.74,3.84-3.08,4.36c-.18,0-.29.35-.48.45-2.37,1.29-2.41,1.79-.39,3.46.52.43,1.22,1.08,1.21,1.62,0,1.72.56,3.46-.32,5.16s.13,3.58-.63,5.42a5.91,5.91,0,0,0,.29,5,12,12,0,0,1,.73,4.69,3.7,3.7,0,0,1-3.52,4.11c-2.32.09-4.74.56-6.84-1.22-.9-.76-2.29-.92-3.38-1.48a15.81,15.81,0,0,1-5.15-3.75c-.68-.83-1.63-1.43-2.4-2.2s-1.34-1.51-2-2.26a5,5,0,0,1-1.42-3.77c.09-1.77-.23-3.6.07-5.33.6-3.42.58-6.95,1.82-10.26a4.7,4.7,0,0,0,.12-1.95c-.09-.93.45-2-.59-2.75-.8-.56-1.45.27-2.22.33-2.6.19-5.29.25-7.54,1.91-.32.24-.86.23-1.11.5-1.75,1.93-4,2.33-6.51,2.16.44-1.44,2.73-1.9,1.68-4h-1.18c-2.35.05-3.19,1.13-2.7,3.53a2.47,2.47,0,0,1-.39,2.08c-1.42,2.15-1.5,5-3.47,6.92-.21.21,0,.84,0,1.41l1,.1c.71-1.38,1.23-2.41,1.83-3.59.41,1.81.44,1.93-1.57,3.62H202a18.73,18.73,0,0,1-.81,4.33c-1.57,3.62-2.22,7.52-3.63,11.19-.68,1.79-1.06,3.79-1.65,5.67a5.71,5.71,0,0,1-3,3.79c-.13-.6-.24-1-.29-1.34-.13-1-.64-1.71-1.65-1.58-2.54.32-4.38-.79-6-2.6-.1-.12-.4-.07-.65-.11-1.1,1.34,0,2.09.82,2.91a2.35,2.35,0,0,1-.28.46c-2.59,2.76-2.67,2.78-5.34-.05a31.17,31.17,0,0,1-3-3.13c-2.08-2.93-2.08-3-2-6.83,0-1.81-.4-3.66.58-5.44.28-.5.29-1.18.77-1.69a2,2,0,0,0,.6-1.39c-.38-2.92,1.63-4.9,2.62-7.32a4.26,4.26,0,0,1-1.26-3.39,5.54,5.54,0,0,0-2.63-5.2c-.43-.26-1.33-3-1.37-3.77,0-.22,0-.44,0-.67v-3.26c1.23,0,2.43,0,3.61,0,2.62.14,5.09-1.11,7.75-.74a2.71,2.71,0,0,0,1.92-.9,26.6,26.6,0,0,0,3.4-4.26c2.57-4.41,5.47-8.65,7.84-13.13,2.54-4.8,6.1-9,8.26-13.94a4.3,4.3,0,0,1,.84-1c2.91-3.36,5.94-6.62,8.7-10.11,1.87-2.37,3.23-5.14,5-7.58,2-2.72,4.35-5.19,6.07-8.13.26-.45.48-.92.74-1.36,1.11-1.88,2.34-3.7,3.3-5.65a10.72,10.72,0,0,0,1.45-3.43,5.1,5.1,0,0,1,1.82-2.91c1.66-1.57,1.71-1.6,3.62.08l4-4c1.49.43,2.8-.2,4.25.64a3.86,3.86,0,0,0,4.2-.8c1.1-1,2.19-.7,3.3-.38,2,.58,4.16.83,6.09,1.45,3.15,1,6.51,1.33,9.49,2.88a13.85,13.85,0,0,0,2.93,1c1.21.32,2.17.47,2.52,2.19a4.54,4.54,0,0,0,3.53,3c2,.37,2.36,1.4,2.35,3Zm102.31,40.53c-1.29,1.88-1.8,4.26-3.52,5.87-.61.57-1.46.88-2.05,1.45s-.74,1.28-1.22,1.82c-1.33,1.49-3.06,1.83-5.28,1.51l-1.81-3.09H365c-2.1-1.76-.77-3.57-.49-5.31,2.41-2.42,2.85-5.72,3.83-8.75a4.51,4.51,0,0,1,2.27-2.66c1.17-.65,2.46-1.06,3.64-1.69a4,4,0,0,1,3.63-.05,12.37,12.37,0,0,1,4.85,3.59,16.61,16.61,0,0,1,.92,2.94C383.84,156.48,384.07,158,383.12,159.38Zm4.51-50.91a3,3,0,0,0-.49,1.45c-.07,1.22,0,2.45,0,3.68,0,1.07-.85,1.9-.73,3.07a3.15,3.15,0,0,1-.71,2.32c-1.68,1.69-3.09,3.71-5.34,4.79-1.12.54-2.16,1.24-3.35,1.94l2.29,1.5a11.92,11.92,0,0,1-1.45,1.68c-2.4,2-4.85,3.87-7.28,5.79-1.21-.37-.41,1.65-1.74,1.4a4.67,4.67,0,0,0-2.38.63A16.17,16.17,0,0,0,364,138.1c-1.49,1-2.92,2.08-4.42,3.06-1.75,1.14-3.58,2.15-5.29,3.34a7,7,0,0,1-2,1,16.26,16.26,0,0,0-3.35,2c1.22,2.07,2.21,3.86,2.1,6.16a5.39,5.39,0,0,0,1.3,2.76c.85,1.23,1.89,2.34,2.8,3.53.44.58,1.2,1.31,1.1,1.84-.38,2.07,1.15,2.93,2.21,4.14a15.81,15.81,0,0,1,2.33,3,3.32,3.32,0,0,0,3.27,1.83c.22.89.4,1.81.69,2.7.14.44.56.4,1.68-.15,1.94,2.36,5.26,2.66,7.56,4.71a19.69,19.69,0,0,0,2.46,1.66c-.57,2.76-4.65,2.38-4,5.9l-7.74-.9c-1.06,1.45-2.4,2.35-3.22,3.87-1.16,2.16-2.21,2.09-4.1.29l-.71-.71-2.86.87v-3.64a4.53,4.53,0,0,0-4-1.23,3.94,3.94,0,0,1-2.87-1.12,32,32,0,0,1-3.81-3.74c-.63-.7-1-1.66-1.68-2.29a46.55,46.55,0,0,1-7.81-10.16c-2.69-4.3-5.09-8.79-7.35-13.32-1-2-2.38-3.83-3.13-6.06-.81-2.41-1.85-4.68-1.53-7.88-.75.76-1.23,1.06-1.37,1.46s.34.73.41,1.13.1.89-.1,1.11a3.09,3.09,0,0,0-.12,3.88c.59,1,.29,1.83.41,3.06l-1.2-1.52c-.48.49-1.19.9-1.4,1.49a6.42,6.42,0,0,0-.05,2.32c.2,3.79-.37,5.19-4,6.45-.18,2.08.27,4.27-.69,6.32-.61,1.31-1,2.78-1.68,4a10,10,0,0,0-1.09,4.14c-2.37.32-.18-2.87-2.42-2.36a4.74,4.74,0,0,0-.85,3.06c.12.7-.63,1.44-.57,1.7.38,1.52-1.34,2-1.42,3.15s.21,2.15-.65,3.09c-.21.23,0,.82,0,1.29,1.19.52,2.37-1.54,3.5.2-1.17.75-2.31,1.4-3.36,2.17-1.21.89-2.32,1.92-3.52,2.81-1,.76-2.57.81-3,2.23-3.65-.4-6.12-3-9-4.88a17.7,17.7,0,0,0-3.48-2.08c-1.94-.71-2.48-2.17-2.55-3.93-.09-2,0-4,0-6s1.36-3.7,1.64-5.67c.33-2.36,2.18-4,3.05-6.09.08-.19.13-.52.25-.55,2.83-.68,2.5-2.9,2.41-5a5.59,5.59,0,0,1,1.29-4.16c1.09-1.27,1.65-3.17,2.94-4s2.39-2.21,3.81-3.24c-.39-3.48,1.33-6.18,3.36-8.87a95.65,95.65,0,0,0,5.31-8.15c2.24-3.67,4.91-7.1,6.9-10.86,2.36-4.44,6.07-8,7.83-12.78,2.1-2.38,3.13-5.43,5-8,.32-.43.25-1.15.48-2.32a3.58,3.58,0,0,1-3.8,1.12c-1-.26-1.66.73-2.42,1.41-1.28,1.13.15,1.91.09,2.83-2.14.38-2.14.38-4.32-.92-1.77.83-.74,2.54-1.21,3.81-1.39.55-2.88,0-4.4.68-1.14.54-.55,2-1.74,2.08a13.21,13.21,0,0,0-2.9.28,6.54,6.54,0,0,0-2.08,1.39c-.28.23-.25.85-.53,1-.85.58-1.79,1-2.9,1.66-.17.92.21,2.13-.95,3.08a2.77,2.77,0,0,1-2.74.55c-.83-.25-1.05-1.18-1.06-2.19a17.57,17.57,0,0,1,1-5,7.92,7.92,0,0,0,0-5.37c-.6-1.36-.1-2,.69-2.8s2.2-.7,1.71-2.26a8.06,8.06,0,0,0,.76-.39A11.87,11.87,0,0,1,304.77,93c.38-.14.88-.21,1.12-.49,3.14-3.68,7.91-4.63,11.79-7.06.61-.38,1.35-.55,1.94-.94s1.12-.78,1.26-1.29a3.33,3.33,0,0,1,2.78-2.43c1.42-.33,2.71-1.16,4.29-1,.55.07,1.15-.4,2.2-.8.41.58.79,1.12,1.18,1.69.44-.24.8-.32,1-.54.44-.58.76-1.25,1.21-1.83s.86-1.14,1.18-1.08c2.12.39,3.22-1.44,4.85-2.1a3.3,3.3,0,0,1,2.15-.07,4.62,4.62,0,0,0,3-.66c3.24-2,6.77-1.09,10.18-1.18.7,0,1.42.83,2.12,1.27,1.69-1.23,1.69-1.23,3.79-1.34a1.29,1.29,0,0,1,.34,0c1.12.26,2.06-1.48,3.25-.34.81.77,1.56,1.58,2.19,2.23,2.11.27,4,.47,5.92.82.47.08,1.16.59,1.21,1,.23,1.9,1.95,2.22,3.14,2.92a3.52,3.52,0,0,1,1.65,1.67,10.66,10.66,0,0,0,2.3,3.05,8.36,8.36,0,0,1,3,5.46c0,.47.46.91.69,1.34-1.56,1.94-1.56,1.94-.46,4.6h2.32c.71,2.57,1.58,5,2,7.56A6.49,6.49,0,0,1,387.63,108.47ZM308.38,177a8.42,8.42,0,0,1-.39,1.69,10.07,10.07,0,0,1-1.26,1.28,9.24,9.24,0,0,1,.39-1.69A9.41,9.41,0,0,1,308.38,177ZM419.1,155.69c1.11-.27,2-.51,2.89-.69a.76.76,0,0,1,.66.22c.29.61.49,1.26.89,2.38C421.68,157.14,419.86,158.26,419.1,155.69ZM496.71,127c-.57,1-1.67,1.6-2.1,3-.48,1.62-2.09,2.9-3.22,4.33-.06.08-.16.23-.23.22-2.14-.11-3.76,1.09-5.49,2.07-.7.39-4.44-.74-5.4-1.41-.5-.35-1.41-.58-1.48-1-.14-.76-.62-1.44-.67-2.06a12.78,12.78,0,0,1,.65-6c1.06-2.63,3.13-4.65,4.12-7.31a3.45,3.45,0,0,1,1.66-1.53c.81-.42,1.88-.4,2.62-.89a18.43,18.43,0,0,0,2.57-2.49,10.1,10.1,0,0,0,1.75,0,1.71,1.71,0,0,1,1.89,1,54.21,54.21,0,0,1,3.25,7.32C497.08,123.7,496.71,125.37,496.71,127Zm8.05-63.2c-1.81.54-3.57,1.18-5.48,0-1.74-1-3.78-.69-5.72-.7-2.38,0-2.38,0-4.31-1.48-.27.26-.59.52-.86.83-1.11,1.26-2.24,1.85-3.93.79-.95-.59-1.39-.1-1.87,1.41-.11.35-.41.85-.71.91A11.48,11.48,0,0,0,478.44,67a1.58,1.58,0,0,1-2.36-1.34,5.16,5.16,0,0,0-1.33-3.49c-1.36.91,0,2.65-1.36,3.26.39,1.62-1,2.14-1.92,2.27a12.23,12.23,0,0,0-3.57,1.15c-.63.31-1.84.55-2.15.22-1.52-1.57-2.51.21-4.25.13.76,1,1.19,1.55,1.66,2.09s.94,1,1.45,1.46c.4,2.16-.68,4-2,5.38-1.78,1.89-3.37,4-5.79,5.3a7.49,7.49,0,0,0-2.36,2.33,11.78,11.78,0,0,1-5.12,4.5,2.06,2.06,0,0,0-1.15,2.94c1.94,0,4,0,6.11,0,1.49,0,2.66-1.08,4.05-1.52a26.78,26.78,0,0,1,5.53-1.22A21.94,21.94,0,0,0,468.57,89c2.38-.82,2.46-.78,3.66,1.42a30.59,30.59,0,0,0,4,6.07c.63.7.72,1.91,1,2.91.38,1.39.7,2.8,1.1,4.43-1.39.25-2.61-.12-3.58,1-.6.68-1.84.87-2.84,1.11-1.33.32-3,0-4,.8-1.16.92-2.59,0-3.63,1.15-.4.45-1.7.07-2.59.07-.37-.62-.73-1.25-1.11-1.91-.53.22-.95.43-1.4.58-1.46.49-3.2.55-3.24,2.81a1.39,1.39,0,0,1-1.67,1.2c-1.79-.29-3.6.46-5.46-.56-1-.56-2.59-.1-4.05-.1v1.8c-2.32.75-4.54,1.57-6.82,2.18a10.44,10.44,0,0,0-5.17,2.86,6.75,6.75,0,0,1-3.21,1.93,3.44,3.44,0,0,0-2.3,2.63c-.66,2.55-1.42,5-3.3,7a3.29,3.29,0,0,0-.67,2.35,6.65,6.65,0,0,1-1.38,4.81c-.31.41-.54.86-.82,1.31l.86.92,1.5-1.5c1.3.1,2,.36,2.37.15,2.53-1.34,5.45-1.3,8-2.38a.84.84,0,0,1,.66,0c2.42,1.93,3.51-.86,5.2-1.48.38-.14.58-.72,1-.9.73-.35,1.35-.83,2,.45.94,1.82,1.67,1.75,3.25.27.63-.59,1.37-1.07,1.95-1.71,1.23-1.36,3-1.53,4.55-1.89,2.94-.71,5.9-1.37,8.86-2,2.23-.49,4.66-.1,7-.1A6.71,6.71,0,0,0,469,128a35.51,35.51,0,0,1,5.09,9.59c.5,1.31,0,2.18-.68,2.36-1.49.39-2,2-3.33,2.36s-2.73.92-4.09,1.41c-.19.07-.35.3-.53.32-3.11.26-6.22.49-9.9.77.56-1.12.84-1.67,1.17-2.34a5.94,5.94,0,0,0-1.21-1.06,3.48,3.48,0,0,0-1.34,0,23.45,23.45,0,0,1-1,4.3c-.24.58-1.37.79-2.05,1.14-1.64-1-1.57-4-4.36-3.35-.33,1.65-.66,3.3-1,5.12-.46.08-1.41,0-1.62.35-1.49,2.53-3.87,2.53-6.55,2.45l-1.48,2.2c-2.38-1.12-3.83-.75-11.37,2.59-.09-2.43-2.51-2.15-3.79-3.28-3.8,2.92-3.8,2.92-5.36,6.45a2,2,0,0,1-2.49-1c-1.44-2.53-3.71-4.31-5.73-6.29-1.68-1.66-2.78-4-5.32-4.72-.28-1.78-2.51-2-2.94-3.74-.38-1.5-1.23-2.86-1.33-4.46a6.7,6.7,0,0,0-.41-1.16A4.6,4.6,0,0,1,398,134c3-5,6.52-9.69,9.19-14.89a12,12,0,0,1,1.4-1.74,2.86,2.86,0,0,0-2.69-2c-1.67,0-1.75-1.24-2-2a5.15,5.15,0,0,1,0-3.59c.71-1.26.39-2.52.55-3.44,1.92-.65,3.61-1.17,5.25-1.79a55.73,55.73,0,0,0,8-3.35,6,6,0,0,0,2-1.54c2.78-4.07,5.45-8.21,8.2-12.3a27.68,27.68,0,0,1,3.21-4.34c2.22-2.21,3.6-5,5.54-7.67-3.85-.77-7,.91-10.3,2.57a4.85,4.85,0,0,1-1.81-3.74c0-1.78,0-3.57,0-5.51a10.56,10.56,0,0,0,4.52-7.28c.48-3.07,2.48-4.24,4.64-4.86,3.39-1,6.73-2.13,10.19-2.93a65.14,65.14,0,0,0,10.87-3.56,17.93,17.93,0,0,1,6.67-1.68,15.85,15.85,0,0,0,3.06-.63c.92-.21,1.82-.48,2.74-.66s2.08.25,3.13-.57c.55-.44,1.73,0,2.6-.13a13.77,13.77,0,0,0,2.4-.65c3-1,6.17-1.05,9.23-1.88s6.24-.68,9.38-.76c2.37-.06,7.12,2,8.78,3.71a8.43,8.43,0,0,1,1.33,2.78c.15.38,0,.89.15,1.27.5,1.18,1.7,2.45,1.49,3.44a22.08,22.08,0,0,0-.25,3.86,5.07,5.07,0,0,0,.57,3.45C506.62,62.45,505.89,63.48,504.76,63.81Zm-73.38,57.83-.58.24c-.07-.18-.24-.39-.2-.54s.27-.39.41-.58C431.09,120.94,431.17,121.13,431.38,121.64Zm-3.05,3.85c-.28,2.44-.9,4.72-4,6.4.43-1.15.49-1.77.83-2.11A12.13,12.13,0,0,0,428.33,125.49Z" transform="translate(-24.5 -19.25)" style="fill: #3d90ea"/>
      <path d="M428.2,69.9c-.67-.29-1.73-.22-2,.66a11.56,11.56,0,0,0-.3,3.52,9.89,9.89,0,0,0,1.13,2.52c.79-1.12,1.34-1.58,1.46-2.14.21-1-.21-2.14.65-3.1C429.29,71.24,428.68,70.11,428.2,69.9Z" transform="translate(-24.5 -19.25)" style="fill: #3d90ea"/>
      <path d="M314.29,154.3a5.65,5.65,0,0,0,1.73,1l1.09-2.38c-.74-.34-1.33-.86-1.86-.8C314.56,152.22,313.88,153.79,314.29,154.3Z" transform="translate(-24.5 -19.25)" style="fill: #3d90ea"/>
      <path d="M364.51,89.21c-3.53-.38-6.93.69-10.41.69-1,1.5-3.09-.18-4.11,1.34a13.14,13.14,0,0,0-4.08.6,37.8,37.8,0,0,1-4.65.09,8.51,8.51,0,0,0-2.39.66,1.71,1.71,0,0,0-1.25,1.69c0,.94.6,1.28,1.3,1.65.92.48,2.33.88,2.58,1.63.76,2.33,2.59,3.67,4.21,5.44a21.7,21.7,0,0,0-.64,4.57c.12,2-.91,3.3-2,4.53a3.91,3.91,0,0,1-3.93,1.12c-.62,5-2.7,8.75-6.88,11.17V127c-5.79,5.21-4.86,5.93-4.39,10.45a6.77,6.77,0,0,0,1.77-.52c1.08-.68,2-2,3.1-2.17,3.25-.55,5.21-2.78,7.34-4.88a6.35,6.35,0,0,1,2.12-1.32,33.66,33.66,0,0,0,7.13-3.78c1.29-1,2.61-3,4.83-1.49.13.09.42,0,.61-.09a18.48,18.48,0,0,0,6-4.68c.08-.11,0-.3,0-.4l-1.66-.8c2-1.5,3.12-3.15,5-4.26a5.34,5.34,0,0,0,2.92-4.73c-.05-1.35,1-1.91,1.93-2.38,2.06-1,2.66-1.44,2-3.15s.18-2.73.3-4.08c.06-.61.44-1.2.45-1.8C371.78,93.53,368,89.58,364.51,89.21Z" transform="translate(-24.5 -19.25)" style="fill: #3d90ea"/>
      <path d="M133.49,228.86c2.18-2.17,2.18-2.17,1.91-3.91C132.82,226.34,132.82,226.34,133.49,228.86Z" transform="translate(-24.5 -19.25)" style="fill: #3d90ea"/>
      <path d="M148.07,147.89c-.93,2.16,1.14,3.19,1.2,4.77h1.89A5.82,5.82,0,0,0,148.07,147.89Z" transform="translate(-24.5 -19.25)" style="fill: #3d90ea"/>
    </g>
  </g>
</svg>
