<svg xmlns="http://www.w3.org/2000/svg" viewBox="0 0 273.44 172.65">
  <title>wovenLogoLinesCSBlueLettersWhiteBackgroundBlue</title>
  <g>
    <rect x="5.82" y="4.77" width="260.84" height="164.74" style="fill: #fff"/>
    <g>
      <path d="M12.45,14.49V180H276.11V14.49ZM214.3,82.71H241v29H214.3Zm-140.65,30H42.3V84.58H73.65Zm41.86,25.5H86.61V109.3h28.9ZM158,114.52H128.7V85.23H158Zm41.93-27.76H171.5V57.13h28.42Zm35.55,82.83H209.68V131.18h25.79Zm34.4,0H241v-41h28.92Z" transform="translate(-7.56 -9.73)" style="fill: #00a2ee"/>
      <g>
        <path d="M78.38,74.55c.71,1.37,1.23,4.46,1.83,8,.69,4.07,1.46,8.68,2.54,10.73s8.48,2.88,14.64,2.94H98V91.89l4.84,4.35c.79,0,4.19-.06,7.68-.37,7.44-.66,8.13-1.83,8.15-1.88.56-1.08,1.11-4.32,1.64-7.45.74-4.42,1.51-9,2.74-11.33.7-1.32,2.49-2.31,5.4-3-3.1-.67-5-1.68-5.7-3-1.23-2.33-2-6.9-2.74-11.32-.53-3.13-1.08-6.37-1.64-7.45,0-.05-.71-1.22-8.17-1.88-3.34-.3-6.6-.36-7.55-.37l-4.85,4.36V48.18c-6.25,0-14,.86-15.06,3s-1.85,6.65-2.54,10.72c-.6,3.58-1.12,6.67-1.83,8-.39.76-1.36,1.65-5,2.33C77,72.91,78,73.8,78.38,74.55Z" transform="translate(-7.56 -9.73)" style="fill: #040926"/>
        <path d="M76.82,119c.56-1.08,1.1-4.32,1.63-7.45.74-4.42,1.51-9,2.74-11.33.7-1.32,2.49-2.31,5.42-3-3.06-.67-4.92-1.67-5.64-3-1.23-2.34-2-6.91-2.75-11.33-.52-3.13-1.07-6.37-1.63-7.45,0,0-.71-1.22-8.17-1.88-3.83-.34-7.55-.37-7.82-.37l-3.09,2.89h0L56,77.59V73.23c-6.25,0-14,.86-15.06,3S39,82.83,38.35,86.9c-.6,3.58-1.12,6.68-1.83,8-.39.76-1.36,1.65-5,2.33,3.6.69,4.57,1.58,5,2.33.71,1.37,1.23,4.46,1.83,8.05.69,4.06,1.46,8.67,2.54,10.72s9,2.94,15.26,2.94V117l4.7,4.29c.38,0,4,0,7.81-.37C76.1,120.26,76.79,119.09,76.82,119Zm-8.31-8.38H61.66l-2-9.62c-.35-1.88-.69-4.21-1-7.13h-.2c-.3,2.54-.6,4.77-1,7.13l-2,9.62H48.66L44.08,86.57h5.53l2.16,12.54c.37,2.32.64,4.53.93,6.89h.18a64.4,64.4,0,0,1,1.25-6.89L56.35,89H61l2.2,10.16c.5,2.32,1,4.53,1.34,6.89h.2c.36-2.36.53-4.57.88-6.89l2.09-12.54h5.24Z" transform="translate(-7.56 -9.73)" style="fill: #040926"/>
        <path d="M120.18,49.49c.7,1.36,1.22,4.46,1.82,8,.69,4.07,1.46,8.68,2.55,10.72s9,3,15.25,3V66.84l1.65,1.48h0l.06.07,3.1,2.78c6.46.18,15.87-.6,17.1-2.92,1.08-2,1.85-6.65,2.54-10.72.6-3.58,1.12-6.67,1.83-8,.39-.76,1.37-1.65,5-2.33-3.59-.69-4.57-1.58-5-2.33-.71-1.37-1.23-4.46-1.83-8-.69-4.07-1.46-8.68-2.54-10.73-1.24-2.34-10.78-3.11-17.24-2.91l-4.88,4.38V23.12c-6.24,0-13.95.86-15,2.94s-1.86,6.66-2.55,10.73c-.6,3.58-1.12,6.67-1.82,8-.4.75-1.37,1.64-5,2.33C118.81,47.84,119.78,48.73,120.18,49.49Z" transform="translate(-7.56 -9.73)" style="fill: #040926"/>
        <path d="M186.16,64a6.68,6.68,0,0,0-6.82,5.77h12.75C191.72,66,189.58,64,186.16,64Z" transform="translate(-7.56 -9.73)" style="fill: #040926"/>
        <path d="M118.9,144.07c.56-1.09,1.1-4.32,1.63-7.45.75-4.42,1.52-9,2.75-11.33.7-1.33,2.49-2.31,5.42-3-3.06-.67-4.92-1.67-5.64-3-1.23-2.33-2-6.9-2.74-11.32-.53-3.13-1.08-6.37-1.64-7.46,0,0-.71-1.21-8.17-1.87-3.47-.31-6.85-.36-7.65-.37L98,102.62V98.27H97.4c-6.12.08-13.36.93-14.42,2.95s-1.86,6.65-2.54,10.72c-.61,3.58-1.13,6.67-1.83,8-.39.76-1.37,1.64-5,2.33,3.59.68,4.57,1.57,5,2.33.7,1.37,1.22,4.46,1.83,8,.68,4.07,1.46,8.68,2.54,10.72s9,3,15.25,3V141.9l4.91,4.42c.91,0,4.21-.07,7.6-.37C118.19,145.29,118.87,144.12,118.9,144.07Zm-17.73-8.26c-6.34,0-12.06-4.5-12.06-12.29s5.72-12.34,12.06-12.34,12.06,4.5,12.06,12.34S107.5,135.81,101.17,135.81Z" transform="translate(-7.56 -9.73)" style="fill: #040926"/>
        <path d="M140.11,116.91l4.86,4.36c6.45.16,15.75-.62,17-2.93,1.08-2,1.86-6.65,2.54-10.72.61-3.58,1.13-6.68,1.83-8,.39-.76,1.37-1.65,5-2.33-3.59-.69-4.57-1.58-5-2.33-.7-1.37-1.22-4.46-1.83-8-.68-4.07-1.46-8.68-2.54-10.73-1.24-2.35-10.85-3.11-17.32-2.91L141.53,76l-.07.08h0l-1.65,1.48V73.21c-6.22,0-13.86.87-15,2.94S123,82.81,122.3,86.88c-.6,3.58-1.12,6.67-1.82,8-.4.75-1.37,1.64-5,2.33,3.6.68,4.57,1.57,5,2.33.7,1.36,1.22,4.46,1.82,8,.69,4.07,1.46,8.68,2.55,10.72s8.46,2.89,14.62,3h.64v-1.59h0ZM130.83,88h5.72l4.64,12.15c.85,2.36,1.63,4.72,2.4,7.09h.2c.78-2.37,1.49-4.73,2.38-7.09L150.8,88h5.42l-9.38,23.48h-6.43Z" transform="translate(-7.56 -9.73)" style="fill: #040926"/>
        <path d="M167.88,50.42c-.56,1.08-1.11,4.32-1.63,7.45-.75,4.42-1.52,9-2.75,11.32-.7,1.33-2.5,2.32-5.44,3,3.08.66,4.95,1.67,5.67,3,1.23,2.34,2,6.91,2.74,11.33.53,3.13,1.07,6.37,1.63,7.45,0,.05.72,1.22,8.17,1.88,2,.18,4,.27,5.49.32V91.91l4.75,4.32c6.46.17,15.8-.61,17-2.93,1.08-2,1.85-6.65,2.54-10.72.6-3.58,1.12-6.67,1.82-8,.4-.76,1.37-1.65,5-2.33-3.6-.69-4.57-1.57-5-2.33-.7-1.37-1.22-4.46-1.82-8-.69-4.07-1.46-8.68-2.54-10.72-1.23-2.33-10.64-3.1-17.1-2.93l-4.94,4.48V48.22c-1.47.05-3.45.14-5.46.32C168.59,49.2,167.91,50.37,167.88,50.42ZM186,59.76c7.17,0,11.15,4.65,11.15,11.15a17.83,17.83,0,0,1-.25,2.78H179.24c.62,4.34,3.78,6.43,8.25,6.43a13.37,13.37,0,0,0,6.73-1.92l1.94,3.42a17.69,17.69,0,0,1-9.41,2.78c-7.36,0-13.14-4.54-13.14-12.35C173.61,64.39,179.56,59.76,186,59.76Z" transform="translate(-7.56 -9.73)" style="fill: #040926"/>
        <path d="M101.17,115.69c-3.92,0-6.27,3.11-6.27,7.83s2.35,7.78,6.27,7.78,6.27-3.08,6.27-7.78S105.09,115.69,101.17,115.69Z" transform="translate(-7.56 -9.73)" style="fill: #040926"/>
        <path d="M7.56,9.73V182.38H281V9.73ZM233.41,156c0,6.65-3.22,12.12-12.57,12.12a13.33,13.33,0,0,1-11.16-5.76l3.76-3.8c2.05,2.77,4.66,4.18,7.22,4.18,4.32,0,6.38-2,6.38-7.25V137.86H212.67v-5.21h20.74Zm-4.69-32.84-3.23,3,0,.06h0l-1.72,1.59v-4.41c-1.47,0-3.47.14-5.5.32-7.44.66-8.13,1.83-8.15,1.88-.56,1.08-1.11,4.32-1.63,7.45-.75,4.42-1.52,9-2.75,11.33-1.06,2-4.57,3.22-10.74,3.75-3.48.29-6.74.27-8,.25l-5,4.48V148.4c-1.47,0-3.47.14-5.49.32-7.45.66-8.14,1.83-8.16,1.87-.56,1.09-1.11,4.33-1.63,7.46-.75,4.42-1.52,9-2.75,11.32-1.06,2-4.57,3.23-10.74,3.75-3.26.28-6.34.28-7.72.26l-3.3,3-.11.12h0l-1.95,1.74v-3.34h0v-1.46c-1.58,0-3.79-.06-6.09-.26-6.17-.52-9.69-1.75-10.74-3.75-1.23-2.33-2-6.9-2.75-11.33-.53-3.13-1.07-6.36-1.63-7.45,0-.05-.71-1.22-8.16-1.87-3.57-.32-7-.37-7.73-.37l-3.14,2.82-.08.1v0l-1.55,1.39v-4.28c-1.6,0-3.89-.06-6.29-.27-6.18-.52-9.69-1.75-10.75-3.75-1.23-2.33-2-6.9-2.74-11.32-.53-3.13-1.07-6.37-1.63-7.45,0,0-.72-1.22-8.17-1.88-3.5-.31-6.89-.36-7.67-.37l-4.83,4.41v-4.4c-1.6,0-3.9-.06-6.3-.26-6.17-.53-9.69-1.75-10.74-3.75-1.23-2.34-2-6.91-2.75-11.33-.52-3.13-1.07-6.37-1.63-7.45,0,0-.71-1.22-8.17-1.88-4-.35-7.8-.37-7.83-.37v-2s3.88,0,7.84-.37c7.45-.66,8.14-1.82,8.16-1.87.56-1.09,1.11-4.33,1.63-7.46.75-4.42,1.52-9,2.75-11.32,1-2,4.57-3.23,10.74-3.75,2.3-.2,4.51-.25,6.1-.26V66.86l4.65,4.35c.24,0,4,0,7.83-.37,7.45-.66,8.14-1.83,8.16-1.88.56-1.08,1.11-4.32,1.63-7.45.75-4.42,1.52-9,2.75-11.32,1-2,4.57-3.23,10.74-3.75,2.3-.2,4.51-.26,6.1-.26V41.8l4.84,4.35c.93,0,4.21-.07,7.58-.37,7.44-.66,8.13-1.83,8.15-1.88.56-1.08,1.11-4.32,1.64-7.45.74-4.42,1.51-9,2.74-11.33,1.06-2,4.57-3.22,10.74-3.75,2.31-.19,4.51-.25,6.1-.26V16.8l4.82,4.33a82.48,82.48,0,0,1,8.34.24c6.17.53,9.69,1.75,10.74,3.75,1.23,2.34,2,6.91,2.75,11.33.52,3.13,1.07,6.37,1.63,7.45,0,.05.71,1.22,8.17,1.88,2,.18,4,.27,5.45.32V41.85l1.56,1.41h0l.05.05,3.16,2.87c.84,0,4.44-.08,8.31.24,6.17.53,9.68,1.76,10.74,3.75,1.23,2.34,2,6.91,2.74,11.33.53,3.13,1.08,6.37,1.64,7.45,0,0,.71,1.22,8.17,1.88,2,.18,4,.27,5.48.32V66.9L228,71.09a81.91,81.91,0,0,1,8.38.2c6.17.5,9.69,1.71,10.76,3.71,1.24,2.32,2,6.89,2.79,11.31.54,3.13,1.1,6.36,1.67,7.44,0,0,.71,1.22,8.16,1.85,4,.33,7.81.33,7.85.33v2s-3.89,0-7.84.4c-7.45.7-8.13,1.87-8.15,1.92-.56,1.09-1.09,4.32-1.6,7.46-.73,4.42-1.48,9-2.7,11.34-1,2-4.55,3.24-10.72,3.79C233.2,123.16,230,123.17,228.72,123.15Zm26.25,45A19.52,19.52,0,0,1,241.74,163l3.68-4.26a15.23,15.23,0,0,0,9.92,4c4.14,0,6.33-1.78,6.33-4.21,0-3.1-2.43-3.93-5.9-5.36l-4.89-2.08c-3.74-1.42-7.6-4.12-7.6-9.23,0-5.53,5.1-9.8,12.36-9.8A16.64,16.64,0,0,1,267,136.47l-3.23,3.93a12.8,12.8,0,0,0-8.46-3c-3.38,0-5.65,1.49-5.65,4.06s2.84,3.7,6.06,4.91l4.67,2c4.53,1.71,7.73,4.35,7.73,9.37C268.15,163.4,263.28,168.11,255,168.11Z" transform="translate(-7.56 -9.73)" style="fill: #040926"/>
        <path d="M208.28,120c-.71-1.37-1.23-4.46-1.83-8-.69-4.07-1.46-8.68-2.54-10.72-1.24-2.34-10.78-3.11-17.24-2.92l-4.91,4.46V98.31c-1.47,0-3.47.14-5.5.32-7.45.66-8.13,1.83-8.16,1.87-.56,1.09-1.1,4.33-1.63,7.46-.74,4.42-1.51,9-2.74,11.32-.71,1.33-2.5,2.32-5.44,3,3.07.66,4.94,1.67,5.66,3,1.23,2.34,2,6.91,2.75,11.33.52,3.13,1.07,6.37,1.63,7.45,0,0,.71,1.22,8.16,1.88,2,.18,4,.27,5.49.32v-4.4l5,4.45c6.45.16,15.74-.62,17-2.93,1.08-2,1.85-6.65,2.54-10.72.6-3.58,1.12-6.67,1.83-8,.39-.76,1.36-1.64,5-2.33C209.64,121.63,208.67,120.74,208.28,120Z" transform="translate(-7.56 -9.73)" style="fill: #040926"/>
        <path d="M249.8,99.35c.39-.76,1.36-1.65,4.95-2.35-3.59-.67-4.57-1.56-5-2.31-.71-1.36-1.24-4.46-1.86-8-.71-4.06-1.5-8.66-2.59-10.71-1.22-2.28-10.42-3-16.87-2.85l-5.11,4.64V73.27c-1.47,0-3.47.14-5.5.32-7.44.66-8.13,1.83-8.15,1.88-.56,1.08-1.11,4.32-1.64,7.45-.74,4.42-1.51,9-2.74,11.32-.7,1.33-2.48,2.31-5.4,3,3.14.66,5,1.68,5.77,3.06,1.23,2.33,2,6.9,2.75,11.32.52,3.13,1.07,6.37,1.63,7.45,0,0,.71,1.22,8.17,1.88,2,.18,4,.27,5.48.32v-4.53l4.76,4.41c6.47.14,15.82-.68,17-3,1.08-2,1.83-6.66,2.5-10.73C248.6,103.81,249.1,100.72,249.8,99.35ZM239,109.11H233.3V95.28c0-3.77-1.24-5.49-4.47-5.49-2.37,0-4,1.12-6.18,3.3v16H217V85.62h4.62l.43,3.53h.19c2.3-2.27,5-4.11,8.67-4.11,5.55,0,8.05,3.47,8.05,9.52Z" transform="translate(-7.56 -9.73)" style="fill: #040926"/>
        <path d="M166.54,145c-.71-1.37-1.23-4.46-1.83-8-.69-4.07-1.46-8.68-2.54-10.73-1.24-2.34-10.79-3.11-17.26-2.91l-4.8,4.31v-2.7h0V123.3h-.63c-6.12.07-13.36.93-14.42,2.94s-1.86,6.66-2.54,10.72c-.6,3.59-1.12,6.68-1.83,8-.39.76-1.37,1.65-5,2.34,3.59.68,4.57,1.57,5,2.33.71,1.36,1.23,4.46,1.83,8,.68,4.06,1.46,8.67,2.54,10.72s8.81,2.93,15.05,3V170h0v-3.36l2,1.75h0l0,0,3.37,3c6.44.14,15.49-.66,16.69-2.93,1.08-2,1.85-6.65,2.54-10.72.6-3.58,1.12-6.68,1.83-8,.39-.76,1.36-1.65,5-2.33C167.9,146.65,166.93,145.76,166.54,145Z" transform="translate(-7.56 -9.73)" style="fill: #040926"/>
      </g>
    </g>
  </g>
</svg>
